<svg width="40" height="40" viewBox="0 0 40 40" fill="none" xmlns="http://www.w3.org/2000/svg">
<g clip-path="url(#clip0_384_1251)">
<path d="M36.25 20C36.25 15.6902 34.538 11.557 31.4905 8.50951C28.443 5.46205 24.3098 3.75 20 3.75C15.6902 3.75 11.557 5.46205 8.50951 8.50951C5.46205 11.557 3.75 15.6902 3.75 20C3.75 24.3098 5.46205 28.443 8.50951 31.4905C11.557 34.538 15.6902 36.25 20 36.25C24.3098 36.25 28.443 34.538 31.4905 31.4905C34.538 28.443 36.25 24.3098 36.25 20ZM0 20C0 14.6957 2.10714 9.60859 5.85786 5.85786C9.60859 2.10714 14.6957 0 20 0C25.3043 0 30.3914 2.10714 34.1421 5.85786C37.8929 9.60859 40 14.6957 40 20C40 25.3043 37.8929 30.3914 34.1421 34.1421C30.3914 37.8929 25.3043 40 20 40C14.6957 40 9.60859 37.8929 5.85786 34.1421C2.10714 30.3914 0 25.3043 0 20ZM13.875 24.8516C15.0625 26.1328 17.0938 27.5 20 27.5C22.9062 27.5 24.9375 26.1328 26.125 24.8516C26.8281 24.0938 28.0156 24.0391 28.7734 24.7422C29.5312 25.4453 29.5859 26.6328 28.8828 27.3906C27.1641 29.25 24.1953 31.25 20.0078 31.25C15.8203 31.25 12.8438 29.2578 11.1328 27.3906C10.4297 26.6328 10.4766 25.4453 11.2422 24.7422C12.0078 24.0391 13.1875 24.0859 13.8906 24.8516H13.875ZM11.2812 16.25C11.2812 15.587 11.5446 14.9511 12.0135 14.4822C12.4823 14.0134 13.1182 13.75 13.7812 13.75C14.4443 13.75 15.0802 14.0134 15.549 14.4822C16.0179 14.9511 16.2812 15.587 16.2812 16.25C16.2812 16.913 16.0179 17.5489 15.549 18.0178C15.0802 18.4866 14.4443 18.75 13.7812 18.75C13.1182 18.75 12.4823 18.4866 12.0135 18.0178C11.5446 17.5489 11.2812 16.913 11.2812 16.25ZM24.2344 17.9453C23.6406 18.5781 22.6562 18.6094 22.0234 18.0156C21.3906 17.4219 21.3594 16.4375 21.9531 15.8047C23.0859 14.5938 24.7031 14.0625 26.2188 14.0625C27.7344 14.0625 29.3516 14.5938 30.4844 15.8047C31.0781 16.4375 31.0391 17.4219 30.4141 18.0156C29.7891 18.6094 28.7969 18.5703 28.2031 17.9453C27.7734 17.4922 27.0469 17.1875 26.2188 17.1875C25.3906 17.1875 24.6641 17.4844 24.2344 17.9453Z" fill="white"/>
</g>
<defs>
<clipPath id="clip0_384_1251">
<rect width="40" height="40" fill="white"/>
</clipPath>
</defs>
</svg>
